<svg width="16" height="16" viewBox="0 0 16 16" fill="none" xmlns="http://www.w3.org/2000/svg">
<path d="M7.97344 0.5C4.69844 0.5 1.92344 2.6 0.898438 5.5H15.0484C14.0234 2.6 11.2484 0.5 7.97344 0.5Z" fill="#3E4347"/>
<path d="M7.97344 15.5C11.2484 15.5 14.0234 13.425 15.0484 10.5H0.898438C1.92344 13.425 4.69844 15.5 7.97344 15.5Z" fill="#FFE62E"/>
<path d="M0.901562 5.5C0.626562 6.275 0.476562 7.125 0.476562 8C0.476562 8.875 0.626562 9.725 0.901562 10.5H15.0516C15.3266 9.725 15.4766 8.875 15.4766 8C15.4766 7.125 15.3266 6.275 15.0516 5.5H0.901562Z" fill="#ED4C5C"/>
</svg>
